<svg xmlns="http://www.w3.org/2000/svg" width="55.37" height="23.706" viewBox="0 0 55.37 23.706">
  <g id="Group_440" data-name="Group 440" transform="translate(-268.067 -643.109)">
    <rect id="Rectangle_179" data-name="Rectangle 179" width="1.679" height="23.409" transform="translate(321.758 643.109)" fill="#fff"/>
    <path id="Path_4700" data-name="Path 4700" d="M289.766,661.488a3.424,3.424,0,0,1-.535,1.862,3.8,3.8,0,0,1-1.526,1.343,5.914,5.914,0,0,1-4.814,0,3.867,3.867,0,0,1-1.54-1.348,3.374,3.374,0,0,1-.545-1.857V643.114h-1.878v18.374a3.366,3.366,0,0,1-.545,1.857,3.881,3.881,0,0,1-1.54,1.349,5.259,5.259,0,0,1-2.406.511,5.328,5.328,0,0,1-2.42-.512,3.791,3.791,0,0,1-1.535-1.343,3.424,3.424,0,0,1-.535-1.862V643.114h-1.88v18.318a5.045,5.045,0,0,0,.816,2.859,5.278,5.278,0,0,0,2.294,1.885,7.979,7.979,0,0,0,3.26.639,8.377,8.377,0,0,0,2.534-.388,6.155,6.155,0,0,0,2.2-1.223,4.179,4.179,0,0,0,.707-.79,4.406,4.406,0,0,0,.679.787,5.625,5.625,0,0,0,2.2,1.237,8.592,8.592,0,0,0,2.538.377,7.9,7.9,0,0,0,3.252-.639,5.282,5.282,0,0,0,2.28-1.885,5.044,5.044,0,0,0,.815-2.859V643.114h-1.878Z" fill="#fff"/>
    <path id="Path_4701" data-name="Path 4701" d="M296.931,659.474l.012-3.89a4.283,4.283,0,0,1,4.276-4.278h4.253v-1.7l-4.562.01a2.516,2.516,0,0,1-1.277-.321,2.481,2.481,0,0,1-.893-.869,2.167,2.167,0,0,1-.324-1.146,2.663,2.663,0,0,1,.308-1.279,2.355,2.355,0,0,1,.836-.892,2.306,2.306,0,0,1,1.232-.322h5.017v-1.679h-5.076a3.864,3.864,0,0,0-2.065.574,4.122,4.122,0,0,0-1.44,1.509,4.223,4.223,0,0,0-.529,2.089,4.068,4.068,0,0,0,.631,2.161,3.618,3.618,0,0,0,.925,1l-.037.022a5.973,5.973,0,0,0-2.953,5.123l-.012,3.891a7.046,7.046,0,0,0,7.038,7.038h3.83v-1.678h-3.829A5.366,5.366,0,0,1,296.931,659.474Z" fill="#fff"/>
    <path id="Path_4702" data-name="Path 4702" d="M314.753,650.45l-.043-.027a3.575,3.575,0,0,0,.925-1,4.019,4.019,0,0,0,.624-2.014l-.023-4.3h-1.727l.023,4.261a2.191,2.191,0,0,1-.307,1.043,2.491,2.491,0,0,1-.894.869,2.516,2.516,0,0,1-1.276.32l-3.913-.008v1.7h3.6a4.283,4.283,0,0,1,4.275,4.278l0,10.949H317.7l0-10.949A5.9,5.9,0,0,0,314.753,650.45Z" fill="#fff"/>
  </g>
</svg>
